<svg width="85" height="37" viewBox="0 0 85 37" fill="none" xmlns="http://www.w3.org/2000/svg">
<path d="M15.1629 3.00002C15.0028 3.00015 14.8339 3.00029 14.6756 3.01918C12.8355 3.17268 11.1445 3.95435 9.9403 5.37838C8.62981 6.9281 8.31289 8.56087 8.32824 10.5338L4.8225 10.5284C4.66547 10.5283 4.50314 10.5238 4.33852 10.5192C3.88113 10.5066 3.40604 10.4934 2.97757 10.5719C2.71917 10.6193 2.4937 10.745 2.31199 10.9341C1.99383 11.2653 1.9861 11.6837 2.00677 12.1123C2.03938 12.788 2.09742 13.4647 2.15539 14.1406C2.18693 14.5082 2.21847 14.876 2.24588 15.2432L2.82775 22.7617L3.11087 26.3925C3.12481 26.5717 3.13595 26.7527 3.14714 26.9345C3.18712 27.5843 3.22769 28.2436 3.39923 28.8652C3.69558 29.9222 4.28292 30.8746 5.09431 31.6143C5.80343 32.2582 6.66054 32.7176 7.58966 32.9513C8.37553 33.141 9.28853 33.1195 10.1461 33.0994C10.4014 33.0934 10.6517 33.0875 10.8924 33.0873L15.6119 33.0859L19.7338 33.0877C19.959 33.0877 20.1908 33.0932 20.4254 33.0988C21.1868 33.1169 21.9803 33.1358 22.6918 32.9699C23.6926 32.737 24.7055 32.1875 25.4362 31.463C26.1161 30.7885 26.6594 29.8879 26.8968 28.9575C27.0784 28.2456 27.124 27.4648 27.1682 26.7075C27.1825 26.4633 27.1966 26.2214 27.2151 25.9852L27.6019 21.0057L28.0843 14.8916C28.1076 14.5896 28.1378 14.2844 28.1681 13.9785C28.2337 13.3156 28.2998 12.6476 28.2983 11.9924C28.2976 11.5895 28.2123 11.2135 27.9235 10.9142C27.7248 10.708 27.3999 10.6073 27.125 10.5625C26.7129 10.4953 26.2611 10.5073 25.824 10.5189C25.6623 10.5232 25.5027 10.5274 25.3479 10.5275C24.2454 10.5254 23.1424 10.5293 22.0399 10.5392L21.9925 10.5399C22.0184 8.42706 21.548 6.61406 20.0291 5.06884C18.7599 3.75378 17.0134 3.00766 15.186 3L15.1629 3.00002ZM21.8448 15.0514L21.9042 15.0549C21.9058 15.0589 21.9073 15.0627 21.9087 15.0661C21.9094 15.068 21.9102 15.0697 21.9109 15.0714C21.9134 15.0777 21.9158 15.0832 21.9179 15.0879L21.9203 15.0936C21.9312 15.1183 21.9332 15.1228 21.9327 15.1626C21.9137 17.7533 21.2202 21.0888 19.3815 22.9862C17.6788 24.7432 15.0347 25.6054 12.6235 25.6532C13.7466 23.5408 15.5514 21.5374 17.413 20.0496C17.7009 19.8197 18.0023 19.6118 18.3039 19.4039C18.4981 19.27 18.6923 19.1361 18.8831 18.9961C19.0683 18.8602 19.3177 18.6758 19.344 18.4279C19.368 18.1996 19.2466 18.0225 19.1037 17.8594C18.9035 17.7434 18.757 17.695 18.5284 17.762C18.2038 17.8573 17.8768 18.0974 17.5816 18.3141C17.5034 18.3715 17.4274 18.4274 17.3543 18.4783C14.9673 20.1687 12.9838 22.366 11.546 24.913C11.4975 22.8408 11.9694 21.105 13.2402 19.4381C15.1474 16.9367 18.7978 15.4666 21.8448 15.0514ZM3.31457 11.8261L26.9974 11.8258C26.9133 12.6234 26.8589 13.4283 26.8045 14.232C26.7743 14.6797 26.744 15.1274 26.7086 15.5731L26.0709 23.5641L25.8325 26.5088C25.8219 26.6367 25.8122 26.7651 25.8025 26.8939C25.7642 27.402 25.7256 27.9146 25.6276 28.412C25.5269 28.9225 25.3315 29.3662 25.0668 29.8114C24.9647 29.9663 24.8539 30.1155 24.735 30.258C24.0485 31.0784 22.9215 31.6894 21.851 31.7704C21.2681 31.8144 20.6683 31.8034 20.0742 31.7925C19.8171 31.7877 19.5609 31.783 19.3075 31.7828L14.3941 31.7813L10.4843 31.7831C10.2957 31.7832 10.1037 31.7872 9.91036 31.7912C9.31738 31.8035 8.71023 31.816 8.14032 31.7179C7.39281 31.5874 6.69423 31.2581 6.11819 30.7644C5.42818 30.1825 4.93297 29.4034 4.69933 28.5316C4.5395 27.9538 4.49965 27.3381 4.46052 26.7336C4.45069 26.5817 4.4409 26.4306 4.42927 26.2809L4.19673 23.2847L3.31457 11.8261ZM22.3707 13.663L22.3531 13.6648C18.7581 14.0807 14.6654 15.5594 12.3417 18.4715C10.8481 20.3431 10.0321 22.7775 10.3016 25.1748C10.3608 25.7012 10.48 26.2043 10.6519 26.7049C10.6324 26.7547 10.6087 26.8143 10.5817 26.8821C10.2867 27.6236 9.60091 29.3472 9.83942 29.8569C9.90841 30.0042 10.0489 30.1031 10.2013 30.1515C10.2641 30.1712 10.3273 30.1825 10.3926 30.1902C10.594 30.157 10.7802 30.1154 10.9014 29.9353C11.0316 29.7415 11.1649 29.276 11.2789 28.8779C11.3333 28.6882 11.3832 28.5138 11.4264 28.3912C11.5741 27.9717 11.7418 27.559 11.9093 27.1469L11.9113 27.1421C11.9309 27.0938 11.9505 27.0456 11.97 26.9974C14.9345 27.0061 18.1007 26.0782 20.2453 23.9622C22.6437 21.5953 23.2478 17.7787 23.2526 14.5488C23.2529 14.2942 23.2354 13.992 23.0491 13.7972C22.9346 13.6774 22.7622 13.6413 22.6021 13.6448C22.5249 13.6465 22.4476 13.6548 22.3707 13.663ZM14.8747 4.29533C14.9895 4.28822 15.1048 4.2818 15.2196 4.2826C16.6277 4.29249 18.0376 4.92227 19.0272 5.91464C20.3744 7.2659 20.65 8.69982 20.6529 10.5339L15.4938 10.5311L9.68838 10.5383C9.64397 8.96179 9.89788 7.52185 10.9322 6.27702C11.9257 5.08116 13.3438 4.43209 14.8747 4.29533Z" fill="white"/>
<path d="M21.9043 15.0548L21.8448 15.0514C18.7978 15.4665 15.1474 16.9366 13.2403 19.4381C11.9694 21.1049 11.4975 22.8408 11.546 24.913C12.9838 22.366 14.9673 20.1686 17.3544 18.4783C17.4275 18.4273 17.5035 18.3715 17.5817 18.3141C17.8768 18.0974 18.2039 17.8572 18.5284 17.762C18.757 17.6949 18.9036 17.7433 19.1038 17.8594C19.2467 18.0224 19.3681 18.1996 19.344 18.4279C19.3178 18.6757 19.0684 18.8601 18.8832 18.9961C18.6924 19.136 18.4981 19.2699 18.304 19.4038C18.0024 19.6118 17.701 19.8196 17.4131 20.0495C15.5514 21.5374 13.7466 23.5407 12.6235 25.6531C15.0348 25.6053 17.6789 24.7432 19.3816 22.9861C21.2203 21.0887 21.9138 17.7532 21.9327 15.1625C21.9332 15.1228 21.9313 15.1182 21.9204 15.0935C21.9178 15.0876 21.9146 15.0804 21.9109 15.0714C21.9089 15.0664 21.9067 15.061 21.9043 15.0548ZM22.3531 13.6648L22.3707 13.6629C22.4477 13.6547 22.5249 13.6465 22.6021 13.6448C22.7622 13.6412 22.9347 13.6773 23.0491 13.7971C23.2354 13.9919 23.253 14.2941 23.2526 14.5488C23.2478 17.7786 22.6437 21.5952 20.2453 23.9621C18.1007 26.0781 14.9345 27.006 11.9701 26.9973C11.9505 27.0455 11.9309 27.0938 11.9113 27.142L11.9093 27.1468C11.7418 27.5589 11.5741 27.9716 11.4264 28.3912C11.3833 28.5137 11.3333 28.6882 11.279 28.8778C11.165 29.2759 11.0317 29.7414 10.9015 29.9353C10.7803 30.1154 10.5941 30.1569 10.3927 30.1901C10.3273 30.1825 10.2641 30.1712 10.2013 30.1515C10.049 30.103 9.90845 30.0042 9.83946 29.8569C9.60095 29.3471 10.2867 27.6236 10.5818 26.882C10.6087 26.8142 10.6325 26.7546 10.6519 26.7049C10.4801 26.2043 10.3608 25.7011 10.3017 25.1747C10.0322 22.7775 10.8481 20.3431 12.3417 18.4714C14.6654 15.5593 18.7581 14.0806 22.3531 13.6648Z" fill="white"/>
<path d="M22.3708 13.6629L22.3532 13.6648C18.7582 14.0806 14.6655 15.5593 12.3417 18.4714C10.8482 20.343 10.0322 22.7775 10.3017 25.1747C10.3609 25.7011 10.4801 26.2043 10.652 26.7049C10.6325 26.7546 10.6088 26.8142 10.5818 26.882C10.2868 27.6236 9.60099 29.3471 9.8395 29.8569C9.90849 30.0042 10.049 30.103 10.2014 30.1515C10.2642 30.1712 10.3274 30.1825 10.3927 30.1901C10.5941 30.1569 10.7803 30.1154 10.9015 29.9353C11.0317 29.7414 11.1649 29.2762 11.279 28.8781C11.3333 28.6883 11.3833 28.5138 11.4265 28.3912C11.5742 27.9716 11.7419 27.559 11.9094 27.1468C11.91 27.1452 11.9107 27.1436 11.9113 27.142C11.9309 27.0938 11.9505 27.0455 11.9701 26.9973C14.9346 27.006 18.1008 26.0781 20.2454 23.9621C22.6437 21.5952 23.2479 17.7786 23.2526 14.5488C23.253 14.2941 23.2355 13.9919 23.0492 13.7971C22.9347 13.6773 22.7622 13.6412 22.6022 13.6448C22.5249 13.6465 22.4477 13.6547 22.3708 13.6629ZM21.8449 15.0514L21.9043 15.0548C21.9067 15.061 21.9089 15.0664 21.9109 15.0714C21.9147 15.0804 21.9178 15.0876 21.9204 15.0935C21.9313 15.1182 21.9333 15.1228 21.9328 15.1625C21.9138 17.7532 21.2203 21.0887 19.3816 22.9861C17.6789 24.7432 15.0348 25.6053 12.6235 25.6531C13.7467 23.5407 15.5515 21.5374 17.4131 20.0495C17.701 19.8196 18.0024 19.6118 18.304 19.4038C18.4982 19.2699 18.6924 19.136 18.8832 18.9961C19.0684 18.8601 19.3178 18.6757 19.3441 18.4279C19.3681 18.1996 19.2467 18.0224 19.1038 17.8594C18.9036 17.7433 18.7571 17.6949 18.5284 17.762C18.2039 17.8572 17.8769 18.0974 17.5817 18.3141C17.5035 18.3715 17.4275 18.4273 17.3544 18.4783C14.9674 20.1686 12.9839 22.366 11.5461 24.913C11.4976 22.8408 11.9694 21.1049 13.2403 19.4381C15.1475 16.9366 18.7979 15.4665 21.8449 15.0514Z" fill="white"/>
<path d="M68.6602 22.4424C68.5703 19.8959 66.4334 17.9047 63.8874 17.9942C61.3406 18.0833 59.3486 20.2209 59.4385 22.7674C59.5284 25.3142 61.666 27.3058 64.2124 27.2159C66.7589 27.1256 68.7501 24.9884 68.6602 22.4424ZM64.0477 19.3785C64.7905 19.4086 65.3925 19.5872 65.9587 20.0887C66.6336 20.6859 67.0099 21.5487 67.0591 22.4424C67.1087 23.3369 66.8272 24.2436 66.2183 24.9099C65.6618 25.5188 64.9678 25.7914 64.1547 25.832C63.4127 25.8243 62.8005 25.7088 62.2152 25.2219C61.5314 24.6532 61.1449 23.8112 61.0721 22.9325C60.9969 22.0189 61.236 21.0744 61.8426 20.3735C62.4442 19.6787 63.1548 19.4395 64.0477 19.3785Z" fill="white"/>
<path d="M55.8375 22.0604C55.534 19.5282 53.2331 17.7233 50.7017 18.0316C48.1771 18.3391 46.378 20.6326 46.6807 23.1578C46.9834 25.6831 49.2735 27.4864 51.7993 27.1886C54.3318 26.8896 56.141 24.5921 55.8375 22.0604ZM50.8494 19.4159C51.5881 19.3557 52.2573 19.4334 52.8811 19.8625C53.5815 20.3442 54.022 21.0882 54.1676 21.9192C54.3329 22.8629 54.1775 23.8721 53.6097 24.6584C53.1127 25.3471 52.4916 25.6888 51.6642 25.8206C50.9084 25.8593 50.2407 25.8133 49.6042 25.363C48.9177 24.8793 48.4551 24.1394 48.3211 23.3104C48.1668 22.3959 48.3516 21.3436 48.8975 20.5829C49.3772 19.9146 50.047 19.544 50.8494 19.4159Z" fill="white"/>
<path d="M78.3325 17.9885C78.3097 17.9893 78.2874 17.9909 78.2646 17.9938C77.1032 18.1309 76.0574 18.693 75.3272 19.6148C74.4942 20.6671 74.2082 22.0014 74.3725 23.321C74.5072 24.4799 75.1003 25.5367 76.0192 26.2563C77.1077 27.102 78.4879 27.3168 79.8327 27.1329C80.6109 27.0263 81.7804 26.6537 82.2779 26.0061C82.4178 25.8243 82.4882 25.6022 82.456 25.3728C82.4333 25.2117 82.3625 25.0575 82.2299 24.9587C82.0773 24.8452 81.8739 24.8309 81.6929 24.8663C81.4413 24.9154 81.2157 25.071 81.0018 25.2185C80.9567 25.2496 80.9122 25.2804 80.868 25.3097C79.9287 25.7978 78.887 26.0273 77.8538 25.6925C77.1187 25.4505 76.5114 24.9229 76.1697 24.2281C75.9915 23.873 75.9028 23.4959 75.8239 23.109H80.2566C80.441 23.1093 80.639 23.1156 80.8425 23.1221C81.368 23.139 81.9308 23.157 82.3946 23.0741C82.5268 23.0505 82.6529 22.9797 82.7489 22.8861C82.967 22.6738 83.0056 22.3732 82.9991 22.0831C82.9743 20.9726 82.4528 19.8772 81.6449 19.1259C80.7122 18.2582 79.587 17.932 78.3325 17.9885ZM78.4692 19.376C79.142 19.2971 79.8205 19.4688 80.375 19.8589C81.0376 20.3299 81.3858 20.9987 81.5253 21.7858C80.9634 21.7926 80.4007 21.791 79.8383 21.7895C79.5572 21.7887 79.276 21.788 78.9952 21.7882L75.8776 21.7923C76.0204 21.3127 76.186 20.877 76.4927 20.4751C76.9869 19.828 77.6711 19.481 78.4692 19.376Z" fill="white"/>
<path d="M53.6448 14.6921C55.3086 14.6526 56.9813 14.6892 58.6463 14.6864C59.5945 14.6847 60.8059 14.6078 61.7264 14.7026C61.8745 14.7181 61.9924 14.76 62.1051 14.8584C62.2654 14.9984 62.372 15.2095 62.3776 15.4234C62.3825 15.6167 62.2642 15.8384 62.1246 15.9681C62.0181 16.0666 61.8911 16.106 61.7508 16.1288C61.3676 16.1906 60.9446 16.1544 60.5557 16.154L58.4901 16.1504L58.4892 23.8165C58.4921 24.4625 58.5739 25.8716 58.4766 26.4211C58.4461 26.5936 58.3835 26.7657 58.2647 26.8979C58.137 27.0398 57.9608 27.1114 57.7713 27.1155C57.5728 27.12 57.3791 27.0764 57.236 26.932C57.0675 26.7632 57.0057 26.5147 56.985 26.284C56.9467 25.8585 56.9817 25.4082 56.9866 24.9807C56.9939 24.3482 56.9882 23.7152 56.9878 23.0827L56.9927 16.1491C56.3057 16.1524 53.9277 16.2618 53.4407 16.0409C53.2629 15.9604 53.1512 15.8359 53.0867 15.6508C53.0179 15.454 53.0492 15.2441 53.1487 15.0634C53.2651 14.8519 53.4205 14.7612 53.6448 14.6921Z" fill="white"/>
<path d="M42.7616 17.9947C43.3796 17.9597 43.9835 17.9992 44.5836 18.1598C45.2172 18.3295 46.1863 18.7033 46.5138 19.3045C46.6039 19.4701 46.6509 19.6682 46.5873 19.8512C46.5223 20.0379 46.345 20.1807 46.1663 20.2539C45.6452 20.4675 44.9928 19.7495 44.5025 19.5649C43.7053 19.2642 42.7465 19.2809 41.9709 19.643C41.2583 19.9757 40.746 20.6058 40.4806 21.3376C40.1727 22.187 40.1467 23.2946 40.5377 24.1224C40.9001 24.8896 41.567 25.4257 42.3581 25.7052C43.2633 26.0253 44.2065 25.8549 45.0524 25.4493C45.3146 25.3074 45.5526 25.1182 45.8513 25.0564C46.0056 25.0246 46.158 25.0413 46.2896 25.1324C46.4516 25.2447 46.5825 25.4668 46.604 25.6629C46.6242 25.8467 46.5527 26.016 46.4387 26.1571C45.9437 26.7705 44.8421 27.0789 44.0924 27.1708C42.7912 27.3303 41.4359 27.0695 40.3946 26.2393C39.4158 25.4741 38.793 24.3417 38.6711 23.1055C38.5422 21.8737 38.9034 20.6408 39.6766 19.6735C40.4603 18.7098 41.5298 18.1265 42.7616 17.9947Z" fill="white"/>
<path d="M70.5524 15.6667C70.5785 15.6655 70.6041 15.6642 70.6297 15.6634C70.8604 15.6561 71.0922 15.7179 71.2554 15.888C71.6442 16.2943 71.4897 17.6636 71.4852 18.2241C72.0148 18.2273 73.3035 18.0626 73.7005 18.4157C73.8441 18.5438 73.9027 18.7212 73.9031 18.9103C73.9039 19.0938 73.8563 19.2695 73.72 19.3989C73.3491 19.7503 72.0095 19.612 71.4844 19.6088C71.4893 20.7347 71.3371 24.2054 71.6841 25.0596C72.2451 26.441 73.4609 25.226 74.1545 25.5526C74.3029 25.6226 74.4246 25.7703 74.4795 25.924C74.5576 26.1429 74.488 26.3385 74.3981 26.5395C74.3827 26.5566 74.3672 26.5732 74.3518 26.5899C73.9328 27.0264 73.1457 27.1313 72.5676 27.1395C71.8969 27.1492 71.2627 27.0353 70.7672 26.5391C70.4093 26.1803 70.1868 25.6881 70.0777 25.1983C69.9093 24.4417 69.9789 23.6042 69.9793 22.8325L69.9813 19.61C69.5746 19.6096 69.1674 19.6067 68.7606 19.6002C68.6935 19.5583 68.628 19.5152 68.569 19.4619C68.4083 19.3171 68.3351 19.1011 68.3294 18.8884C68.3245 18.7102 68.379 18.5345 68.512 18.4112C68.8407 18.1069 69.5636 18.216 69.9813 18.2233C69.9801 17.6371 69.8516 16.586 70.0729 16.0702C70.1713 15.8412 70.332 15.7582 70.5524 15.6667Z" fill="white"/>
<path fill-rule="evenodd" clip-rule="evenodd" d="M38.2793 15.4471C37.5784 15.3783 34.1478 15.4027 32.9576 15.4202C32.7388 15.4234 32.5358 15.4383 32.3576 15.4514C32.2059 15.4626 32.0722 15.4725 31.9618 15.4726C31.9618 15.4726 31.4881 15.5838 31.3345 15.7971C31.2341 15.9369 31.1998 16.1141 31.1758 16.281C31.0487 17.1672 30.9743 18.0714 30.9001 18.9726C30.8611 19.4469 30.8221 19.9204 30.7756 20.39L30.3242 24.9455C30.3122 25.0673 30.2914 25.2335 30.2677 25.4223C30.1913 26.0325 30.0854 26.8777 30.1539 27.2141C30.1918 27.4005 30.2906 27.5545 30.4555 27.6517C30.6181 27.7476 30.8025 27.8022 30.9876 27.8336L30.9893 27.8336C31.3721 27.8328 31.9492 27.8388 32.5941 27.8454C33.9312 27.8593 37.3311 27.8761 38.1217 27.8421C38.2793 27.8352 38.4464 27.8218 38.595 27.7656C38.7945 27.69 38.9586 27.5456 39.0375 27.3446C39.117 27.1425 39.0993 26.9159 39.0092 26.7206C38.9186 26.5237 38.7962 26.4188 38.5908 26.3529H31.7572C31.8712 25.3468 31.9732 24.3395 32.063 23.331L32.1437 22.5112L32.1515 22.4299C32.2049 22.4306 32.2752 22.4317 32.3588 22.4329C33.0548 22.4434 36.4424 22.4678 36.8741 22.4035C37.0325 22.3799 37.1804 22.34 37.2963 22.2233C37.4463 22.0719 37.5087 21.8629 37.4963 21.653C37.4858 21.4748 37.4069 21.2808 37.2715 21.1608C37.1811 21.081 37.0691 21.0294 36.9495 21.0127C36.5461 20.954 33.5343 20.9699 32.774 20.9797C32.5701 20.9823 32.4006 20.9845 32.2911 20.9846L32.6375 16.8977H36.3253C36.5133 16.8978 36.7092 16.9041 36.908 16.9105C37.3893 16.9259 37.8881 16.9419 38.3357 16.8725C38.4949 16.8481 38.6314 16.7936 38.7469 16.6777C38.8883 16.5357 38.9657 16.3209 38.9548 16.1216C38.9437 15.9182 38.8343 15.7246 38.6752 15.5997C38.554 15.5045 38.4312 15.4618 38.2793 15.4471Z" fill="white"/>
</svg>
